<svg width="46" height="102" viewBox="0 0 46 102" fill="none" xmlns="http://www.w3.org/2000/svg">
<path d="M1.43554 40.4138C6.32106 45.9038 6.48591 47.6084 8.13923 52.5414L8.4491 53.4811C8.9469 54.9408 9.4197 56.2715 9.77356 57.2133C9.4729 53.97 9.45036 50.7068 9.70617 47.4596C7.63274 46.1398 1.9155 39.1661 5.34834 28.3419C9.46991 35.8954 8.35514 36.4662 9.7782 46.4579C10.0943 43.1644 10.7178 39.9077 11.6404 36.7303C9.0991 34.2607 6.56318 26.3475 11.4186 17.4879C13.7505 25.6211 12.6678 25.8759 11.8603 35.9645C12.8515 32.7016 14.1391 29.5362 15.707 26.508C14.4914 24.5484 12.6174 16.0393 19.2133 7.96857C19.8796 15.8937 19.0119 15.9777 15.924 26.0991C17.5422 23.0282 19.4215 20.1022 21.5412 17.3535C20.7235 15.3679 21.4586 11.13 22.0126 9.03049C23.1062 5.44784 25.2843 2.29267 28.2466 0C28.0483 2.48922 27.5727 4.94852 26.8285 7.33218C26.4647 8.24559 26.0429 9.13484 25.5657 9.99447C25.0437 11.0022 24.4298 12.0939 23.8589 13.1126C22.844 14.9751 21.9661 16.6367 21.6502 17.1865C22.9949 15.436 24.4947 13.6705 25.7115 12.4079C25.9714 12.12 26.1754 11.9001 26.3414 11.7401C26.8074 10.7848 27.3578 9.87312 27.9861 9.01585C28.8836 7.72827 29.8959 6.52468 31.0106 5.41988C33.4679 3.07547 36.5233 1.45304 39.8418 0.730524C37.8581 3.48887 35.4899 5.9491 32.8091 8.03637C31.9282 8.69716 30.4385 9.66085 29.0818 10.5116C28.069 11.1664 27.1222 11.7272 26.5933 12.0161C26.4453 12.168 26.2514 12.362 26.0194 12.6159C20.9905 18.0126 16.9755 24.2717 14.1671 31.0928C13.6671 32.3925 13.1372 33.7701 12.6932 35.1957C13.2816 33.7736 14.0916 32.4536 15.0929 31.2848C17.5964 28.3836 21.1407 26.1514 24.9788 26.7625C23.0312 30.1087 19.9821 32.6748 16.3524 34.0222C14.8817 34.665 13.406 35.3207 12.5842 35.5566C11.5917 38.7692 10.9115 42.07 10.5531 45.4132C10.8996 44.0549 11.4537 42.7583 12.1959 41.5692C14.2017 38.1781 17.4131 35.415 21.4331 35.3202C20.4183 37.7634 18.9254 39.9792 17.0422 41.8374C15.1591 43.6956 12.9236 45.1588 10.4671 46.141C10.1531 49.4465 10.1315 52.7733 10.4025 56.0827C10.9066 51.3978 14.0852 45.3844 19.681 44.18C19.1003 46.8229 17.9826 49.3181 16.3973 51.511C14.812 53.7039 12.793 55.5475 10.4654 56.9275C10.7781 60.2049 11.5083 63.429 12.6383 66.5213C12.5915 66.125 12.5655 65.7266 12.5604 65.3276C12.4907 60.2728 14.7545 55.2801 19.7045 53.1559C19.4131 59.6534 14.6809 65.7106 12.9602 67.3911L13.0112 67.5301C14.2256 70.534 15.8161 73.3717 17.7445 75.9754C16.2601 72.0772 15.9706 65.0729 21.4645 61.2631C22.0331 66.6254 20.923 72.0319 18.2874 76.7362C20.2929 79.3423 22.5267 81.7645 24.9624 83.9739C22.1633 78.839 21.2799 72.8743 25.1863 68.1107C25.6338 69.232 26.0202 70.3768 26.3438 71.5399C27.4561 75.8933 27.201 80.4835 25.6132 84.6868C28.1074 86.9294 30.6427 88.9491 33.287 90.9958C28.2636 82.7224 28.9557 78.3635 30.8665 74.2496C31.3734 75.0264 32.1861 76.2492 33.0058 77.8029C33.9669 79.5725 34.6261 81.4901 34.956 83.4766C35.0779 84.8067 35.0627 86.1458 34.9108 87.4727C34.8012 88.8848 34.5066 90.2763 34.0347 91.6117C36.8589 93.7723 39.3532 95.627 42.0025 97.6607C40.2469 94.4902 38.8287 91.1442 37.7711 87.6778C37.3075 85.0707 37.4885 82.3898 38.2984 79.8687C39.3725 81.0919 40.3723 82.3783 41.2925 83.721C42.7559 85.7842 43.6504 88.1963 43.8863 90.7148C44.1222 93.2333 43.6911 95.7695 42.6363 98.0686C43.588 98.8525 44.5768 99.6954 45.5635 100.582C45.3295 100.88 45.0955 101.178 44.8746 101.481L43.1161 99.9242C41.4075 100.759 33.1783 102.487 27.8997 100.695C26.2451 100.104 24.6457 99.3693 23.1199 98.4984C27.8089 96.1992 30.9693 95.0427 41.6465 98.7024C39.3822 96.8317 36.7619 94.8391 34.6115 93.1763C32.9419 94.026 25.0166 95.8561 19.0202 92.9824C17.3165 92.1463 15.7062 91.1318 14.2165 89.9559C16.8035 89.2131 19.4923 88.8875 22.1817 88.9916C25.9171 89.7609 29.5938 90.7914 33.1849 92.0755C30.7706 90.2068 28.4103 88.3141 26.1179 86.2834C24.4543 87.0012 14.2866 89.192 6.33405 79.2249C15.041 79.5904 15.0169 80.7001 24.9293 85.1846C22.6375 83.103 20.5133 80.844 18.5762 78.4288C15.2919 79.2095 5.87624 77.8552 1.353 66.3427C9.31993 69.4074 9.25488 70.5462 14.5724 74.8745C15.809 75.8873 17.1956 76.8981 17.6395 77.2181C15.7238 74.6901 14.1161 71.943 12.8501 69.0347C12.6864 69.034 12.5232 69.0163 12.3632 68.9817C12.1812 68.9583 12.0016 68.9192 11.8264 68.8647C4.5722 66.8947 1.08041 60.613 0.00012207 53.0657C6.77123 57.804 6.41323 59.2777 9.99507 64.5496C10.3569 65.1215 10.7468 65.6594 11.0897 66.1643C11.4326 66.6692 11.7825 67.1171 12.0694 67.4961L12.2483 67.729C11.0658 64.7274 10.2682 61.5881 9.87447 58.3861C6.2804 57.0632 0.646103 50.8823 1.43554 40.4138Z" fill="currentColor"/>
<path d="M16.7527 25.6122C19.4513 21.0405 25.1132 17.2207 30.1099 18.8146C28.1383 21.4579 24.6879 24.338 16.7527 25.6122Z" fill="currentColor"/>
<path d="M29.4685 11.6003C30.5919 11.0962 31.8078 10.8312 33.0391 10.822C34.2703 10.8127 35.4901 11.0596 36.6209 11.5468C34.9696 13.1518 33.0299 14.4305 30.904 15.3155C28.2016 15.9405 25.4599 16.3812 22.6978 16.6347C23.7782 15.3281 25.0303 14.1736 26.4202 13.2027C27.3688 12.549 28.3922 12.0111 29.4685 11.6003Z" fill="currentColor"/>
</svg>
