<svg width="46" height="102" viewBox="0 0 46 102" fill="none" xmlns="http://www.w3.org/2000/svg">
<path d="M44.1279 40.4138C39.2424 45.9038 39.0776 47.6084 37.4243 52.5414L37.1144 53.4811C36.6166 54.9408 36.1438 56.2715 35.7899 57.2133C36.0906 53.97 36.1131 50.7068 35.8573 47.4596C37.9307 46.1398 43.648 39.1661 40.2151 28.3419C36.0936 35.8954 37.2083 36.4662 35.7853 46.4579C35.4692 43.1644 34.8457 39.9077 33.9231 36.7303C36.4644 34.2607 39.0003 26.3475 34.1449 17.4879C31.813 25.6211 32.8957 25.8759 33.7031 35.9645C32.712 32.7016 31.4244 29.5362 29.8565 26.508C31.0721 24.5484 32.9461 16.0393 26.3502 7.96857C25.6838 15.8937 26.5516 15.9777 29.6395 26.0991C28.0213 23.0282 26.142 20.1022 24.0223 17.3535C24.84 15.3679 24.1049 11.13 23.5509 9.03049C22.4573 5.44784 20.2791 2.29267 17.3169 0C17.5152 2.48922 17.9908 4.94852 18.735 7.33218C19.0988 8.24559 19.5206 9.13484 19.9978 9.99447C20.5198 11.0022 21.1337 12.0939 21.7046 13.1126C22.7195 14.9751 23.5974 16.6367 23.9133 17.1865C22.5685 15.436 21.0688 13.6705 19.852 12.4079C19.592 12.12 19.3881 11.9001 19.2221 11.7401C18.7561 10.7848 18.2057 9.87312 17.5773 9.01585C16.6799 7.72827 15.6676 6.52468 14.5528 5.41988C12.0956 3.07547 9.04014 1.45304 5.72164 0.730524C7.70533 3.48887 10.0736 5.9491 12.7544 8.03637C13.6352 8.69716 15.125 9.66085 16.4817 10.5116C17.4945 11.1664 18.4413 11.7272 18.9702 12.0161C19.1182 12.168 19.3121 12.362 19.5441 12.6159C24.573 18.0126 28.588 24.2717 31.3964 31.0928C31.8963 32.3925 32.4263 33.7701 32.8703 35.1957C32.2818 33.7736 31.4719 32.4536 30.4706 31.2848C27.967 28.3836 24.4227 26.1514 20.5847 26.7625C22.5323 30.1087 25.5814 32.6748 29.2111 34.0222C30.6818 34.665 32.1575 35.3207 32.9793 35.5566C33.9717 38.7692 34.6519 42.07 35.0104 45.4132C34.6639 44.0549 34.1097 42.7583 33.3676 41.5692C31.3618 38.1781 28.1504 35.415 24.1304 35.3202C25.1452 37.7634 26.6381 39.9792 28.5212 41.8374C30.4044 43.6956 32.6399 45.1588 35.0964 46.141C35.4103 49.4465 35.432 52.7733 35.161 56.0827C34.6568 51.3978 31.4782 45.3844 25.8825 44.18C26.4632 46.8229 27.5808 49.3181 29.1661 51.511C30.7514 53.7039 32.7705 55.5475 35.0981 56.9275C34.7854 60.2049 34.0552 63.429 32.9252 66.5213C32.972 66.125 32.998 65.7266 33.0031 65.3276C33.0727 60.2728 30.809 55.2801 25.859 53.1559C26.1503 59.6534 30.8826 65.7106 32.6033 67.3911L32.5523 67.5301C31.3379 70.534 29.7474 73.3717 27.8189 75.9754C29.3033 72.0772 29.5929 65.0729 24.0989 61.2631C23.5304 66.6254 24.6405 72.0319 27.2761 76.7362C25.2706 79.3423 23.0367 81.7645 20.6011 83.9739C23.4001 78.839 24.2836 72.8743 20.3772 68.1107C19.9297 69.232 19.5433 70.3768 19.2197 71.5399C18.1073 75.8933 18.3624 80.4835 19.9503 84.6868C17.4561 86.9294 14.9208 88.9491 12.2765 90.9958C17.2998 82.7224 16.6077 78.3635 14.6969 74.2496C14.1901 75.0264 13.3774 76.2492 12.5577 77.8029C11.5965 79.5725 10.9374 81.4901 10.6075 83.4766C10.4856 84.8067 10.5008 86.1458 10.6527 87.4727C10.7623 88.8848 11.0568 90.2763 11.5287 91.6117C8.70453 93.7723 6.21023 95.627 3.56098 97.6607C5.3166 94.4902 6.73481 91.1442 7.79237 87.6778C8.25601 85.0707 8.07497 82.3898 7.26504 79.8687C6.19101 81.0919 5.1912 82.3783 4.27098 83.721C2.8076 85.7842 1.91303 88.1963 1.67714 90.7148C1.44126 93.2333 1.87237 95.7695 2.92716 98.0686C1.97543 98.8525 0.986713 99.6954 0 100.582C0.233963 100.88 0.467928 101.178 0.688894 101.481L2.44738 99.9242C4.15602 100.759 12.3852 102.487 17.6638 100.695C19.3184 100.104 20.9178 99.3693 22.4436 98.4984C17.7545 96.1992 14.5942 95.0427 3.91696 98.7024C6.18131 96.8317 8.80157 94.8391 10.952 93.1763C12.6216 94.026 20.5469 95.8561 26.5433 92.9824C28.247 92.1463 29.8573 91.1318 31.3469 89.9559C28.76 89.2131 26.0712 88.8875 23.3818 88.9916C19.6464 89.7609 15.9696 90.7914 12.3786 92.0755C14.7929 90.2068 17.1532 88.3141 19.4455 86.2834C21.1092 87.0012 31.2769 89.192 39.2294 79.2249C30.5225 79.5904 30.5466 80.7001 20.6342 85.1846C22.9259 83.103 25.0502 80.844 26.9873 78.4288C30.2715 79.2095 39.6872 77.8552 44.2105 66.3427C36.2435 69.4074 36.3086 70.5462 30.9911 74.8745C29.7545 75.8873 28.3679 76.8981 27.924 77.2181C29.8396 74.6901 31.4474 71.943 32.7134 69.0347C32.8771 69.034 33.0402 69.0163 33.2002 68.9817C33.3822 68.9583 33.5619 68.9192 33.7371 68.8647C40.9913 66.8947 44.4831 60.613 45.5634 53.0657C38.7922 57.804 39.1502 59.2777 35.5684 64.5496C35.2065 65.1215 34.8167 65.6594 34.4738 66.1643C34.1309 66.6692 33.781 67.1171 33.4941 67.4961L33.3151 67.729C34.4977 64.7274 35.2953 61.5881 35.689 58.3861C39.2831 57.0632 44.9174 50.8823 44.1279 40.4138Z" fill="currentColor"/>
<path d="M28.8108 25.6122C26.1121 21.0405 20.4502 17.2207 15.4535 18.8146C17.4252 21.4579 20.8756 24.338 28.8108 25.6122Z" fill="currentColor"/>
<path d="M16.0949 11.6003C14.9715 11.0962 13.7557 10.8312 12.5244 10.822C11.2932 10.8127 10.0734 11.0596 8.94262 11.5468C10.5939 13.1518 12.5335 14.4305 14.6595 15.3155C17.3619 15.9405 20.1035 16.3812 22.8656 16.6347C21.7853 15.3281 20.5332 14.1736 19.1433 13.2027C18.1947 12.549 17.1713 12.0111 16.0949 11.6003Z" fill="currentColor"/>
</svg>
